<svg xmlns="http://www.w3.org/2000/svg" xmlns:xlink="http://www.w3.org/1999/xlink" width="1920" zoomAndPan="magnify" viewBox="0 0 1440 809.999993" height="1080" preserveAspectRatio="xMidYMid meet" version="1.0"><defs><clipPath id="3b1f413ca2"><path d="M 320 425 L 693 425 L 693 726 L 320 726 Z M 320 425 " clip-rule="nonzero"/></clipPath><clipPath id="f2fbfbad8d"><path d="M 379.863281 424.628906 L 693.382812 625.230469 L 614.902344 747.890625 L 301.382812 547.289062 Z M 379.863281 424.628906 " clip-rule="nonzero"/></clipPath><clipPath id="6800de073e"><path d="M 379.863281 424.628906 L 693.382812 625.230469 L 614.902344 747.890625 L 301.382812 547.289062 Z M 379.863281 424.628906 " clip-rule="nonzero"/></clipPath><clipPath id="f19c853cb4"><path d="M 781 64 L 1137 64 L 1137 353 L 781 353 Z M 781 64 " clip-rule="nonzero"/></clipPath><clipPath id="c8fb55ca00"><path d="M 839.570312 63.09375 L 1138.136719 257.929688 L 1061.988281 374.621094 L 763.421875 179.789062 Z M 839.570312 63.09375 " clip-rule="nonzero"/></clipPath><clipPath id="5c5cc3c65e"><path d="M 839.570312 63.09375 L 1138.136719 257.929688 L 1061.988281 374.621094 L 763.421875 179.789062 Z M 839.570312 63.09375 " clip-rule="nonzero"/></clipPath></defs><g clip-path="url(#3b1f413ca2)"><g clip-path="url(#f2fbfbad8d)"><g clip-path="url(#6800de073e)"><path fill="#ff3131" d="M 379.382812 426.480469 C 379.511719 426.277344 379.675781 426.109375 379.875 425.96875 C 380.074219 425.832031 380.289062 425.738281 380.523438 425.683594 C 380.761719 425.632812 380.996094 425.628906 381.234375 425.671875 C 381.472656 425.714844 381.691406 425.800781 381.894531 425.929688 C 392.359375 432.625 392.816406 443.265625 393.246094 453.558594 C 393.652344 463.347656 394.042969 472.597656 402.917969 478.277344 C 411.796875 483.957031 420.347656 480.429688 429.417969 476.703125 C 438.941406 472.78125 448.789062 468.730469 459.257812 475.429688 C 469.730469 482.128906 470.171875 492.761719 470.601562 503.054688 C 471.019531 512.847656 471.382812 522.082031 480.277344 527.773438 C 489.167969 533.460938 497.710938 529.929688 506.78125 526.199219 C 516.304688 522.28125 526.152344 518.230469 536.625 524.929688 C 547.09375 531.628906 547.542969 542.265625 547.972656 552.558594 C 548.382812 562.347656 548.753906 571.585938 557.648438 577.277344 C 566.539062 582.96875 575.082031 579.433594 584.144531 575.699219 C 593.664062 571.773438 603.507812 567.722656 613.988281 574.429688 C 624.464844 581.132812 624.90625 591.765625 625.339844 602.058594 C 625.753906 611.855469 626.117188 621.085938 635.019531 626.78125 C 643.917969 632.476562 652.449219 628.933594 661.515625 625.207031 C 671.035156 621.28125 680.878906 617.230469 691.351562 623.929688 C 691.554688 624.058594 691.726562 624.222656 691.863281 624.421875 C 692 624.617188 692.09375 624.835938 692.148438 625.070312 C 692.199219 625.308594 692.203125 625.542969 692.160156 625.78125 C 692.117188 626.019531 692.03125 626.238281 691.902344 626.441406 C 691.773438 626.644531 691.609375 626.816406 691.410156 626.953125 C 691.210938 627.09375 690.996094 627.1875 690.757812 627.238281 C 690.523438 627.292969 690.289062 627.296875 690.050781 627.253906 C 689.8125 627.210938 689.59375 627.125 689.390625 626.996094 C 680.511719 621.316406 671.953125 624.839844 662.882812 628.566406 C 653.359375 632.488281 643.511719 636.539062 633.046875 629.84375 C 622.585938 623.148438 622.128906 612.507812 621.691406 602.210938 C 621.28125 592.417969 620.894531 583.171875 612.023438 577.496094 C 603.15625 571.820312 594.589844 575.339844 585.527344 579.070312 C 575.996094 582.988281 566.148438 587.039062 555.675781 580.339844 C 545.207031 573.640625 544.757812 563 544.328125 552.710938 C 543.917969 542.917969 543.53125 533.671875 534.660156 527.996094 C 525.792969 522.320312 517.222656 525.839844 508.164062 529.570312 C 498.628906 533.488281 488.785156 537.539062 478.3125 530.839844 C 467.84375 524.140625 467.402344 513.507812 466.96875 503.214844 C 466.554688 493.417969 466.167969 484.171875 457.296875 478.496094 C 448.425781 472.820312 439.859375 476.339844 430.792969 480.066406 C 421.265625 483.988281 411.421875 488.039062 400.957031 481.34375 C 390.492188 474.648438 390.039062 464.007812 389.605469 453.714844 C 389.199219 443.925781 388.804688 434.671875 379.933594 428.996094 C 379.730469 428.867188 379.558594 428.703125 379.421875 428.503906 C 379.285156 428.304688 379.191406 428.089844 379.136719 427.855469 C 379.085938 427.617188 379.082031 427.382812 379.125 427.144531 C 379.167969 426.90625 379.253906 426.6875 379.382812 426.480469 Z M 661.921875 669.925781 C 651.449219 663.226562 641.601562 667.277344 632.078125 671.199219 C 622.988281 674.957031 614.449219 678.449219 605.582031 672.773438 C 596.710938 667.097656 596.316406 657.847656 595.898438 648.050781 C 595.449219 637.789062 595.019531 627.121094 584.554688 620.425781 C 574.09375 613.730469 564.210938 617.804688 554.6875 621.722656 C 545.625 625.457031 537.082031 628.992188 528.1875 623.300781 C 519.296875 617.609375 518.925781 608.371094 518.515625 598.582031 C 518.085938 588.289062 517.65625 577.621094 507.191406 570.925781 C 496.730469 564.230469 486.882812 568.28125 477.355469 572.203125 C 468.289062 575.929688 459.753906 579.46875 450.851562 573.773438 C 441.953125 568.078125 441.59375 558.851562 441.179688 549.054688 C 440.722656 538.789062 440.292969 528.121094 429.828125 521.425781 C 419.367188 514.730469 409.492188 518.808594 399.964844 522.730469 C 390.898438 526.457031 382.359375 529.949219 373.488281 524.273438 C 364.617188 518.597656 364.203125 509.378906 363.796875 499.585938 C 363.363281 489.292969 362.929688 478.621094 352.464844 471.925781 C 352.261719 471.796875 352.042969 471.710938 351.804688 471.667969 C 351.566406 471.625 351.332031 471.628906 351.09375 471.683594 C 350.859375 471.734375 350.640625 471.828125 350.445312 471.96875 C 350.246094 472.105469 350.082031 472.277344 349.953125 472.480469 C 349.820312 472.683594 349.734375 472.902344 349.695312 473.140625 C 349.652344 473.378906 349.65625 473.613281 349.707031 473.851562 C 349.757812 474.085938 349.855469 474.304688 349.992188 474.5 C 350.128906 474.699219 350.300781 474.863281 350.503906 474.992188 C 359.375 480.667969 359.769531 489.921875 360.179688 499.703125 C 360.59375 510.027344 361.054688 520.640625 371.527344 527.339844 C 381.996094 534.039062 391.839844 529.976562 401.367188 526.058594 C 410.410156 522.367188 418.988281 518.8125 427.867188 524.492188 C 436.746094 530.171875 437.125 539.417969 437.542969 549.203125 C 437.976562 559.496094 438.417969 570.140625 448.882812 576.835938 C 459.347656 583.53125 469.207031 579.476562 478.730469 575.554688 C 487.765625 571.863281 496.351562 568.3125 505.230469 573.992188 C 514.109375 579.671875 514.496094 588.921875 514.910156 598.703125 C 515.339844 608.996094 515.792969 619.644531 526.253906 626.339844 C 536.71875 633.035156 546.578125 628.980469 556.101562 625.0625 C 565.128906 621.363281 573.71875 617.8125 582.59375 623.492188 C 591.472656 629.171875 591.859375 638.421875 592.273438 648.203125 C 592.710938 658.5 593.15625 669.144531 603.625 675.847656 C 614.097656 682.546875 623.941406 678.480469 633.464844 674.5625 C 642.5 670.867188 651.082031 667.3125 659.957031 672.992188 C 660.160156 673.121094 660.382812 673.207031 660.621094 673.25 C 660.855469 673.292969 661.09375 673.289062 661.328125 673.238281 C 661.566406 673.183594 661.78125 673.089844 661.980469 672.953125 C 662.175781 672.8125 662.339844 672.644531 662.472656 672.441406 C 662.601562 672.234375 662.6875 672.015625 662.730469 671.777344 C 662.773438 671.539062 662.769531 671.304688 662.714844 671.066406 C 662.664062 670.832031 662.570312 670.617188 662.433594 670.417969 C 662.292969 670.21875 662.125 670.054688 661.921875 669.925781 Z M 632.488281 715.921875 C 622.019531 709.222656 612.167969 713.28125 602.648438 717.195312 C 593.578125 720.921875 585.042969 724.460938 576.148438 718.773438 C 567.257812 713.082031 566.882812 703.84375 566.46875 694.046875 C 566.03125 683.761719 565.589844 673.117188 555.117188 666.417969 C 544.648438 659.71875 534.796875 663.777344 525.273438 667.691406 C 516.214844 671.421875 507.671875 674.957031 498.777344 669.265625 C 489.886719 663.578125 489.511719 654.339844 489.105469 644.546875 C 488.667969 634.261719 488.226562 623.617188 477.753906 616.917969 C 467.285156 610.21875 457.441406 614.28125 447.917969 618.195312 C 438.851562 621.921875 430.316406 625.460938 421.414062 619.765625 C 412.515625 614.070312 412.15625 604.84375 411.742188 595.046875 C 411.304688 584.765625 410.863281 574.117188 400.398438 567.421875 C 389.933594 560.730469 380.078125 564.78125 370.554688 568.695312 C 361.488281 572.421875 352.953125 575.960938 344.058594 570.273438 C 335.164062 564.582031 334.792969 555.34375 334.386719 545.554688 C 333.949219 535.269531 333.496094 524.617188 323.035156 517.921875 C 322.832031 517.792969 322.609375 517.707031 322.375 517.664062 C 322.136719 517.625 321.898438 517.628906 321.664062 517.679688 C 321.429688 517.730469 321.210938 517.828125 321.015625 517.964844 C 320.816406 518.101562 320.652344 518.273438 320.523438 518.476562 C 320.390625 518.679688 320.304688 518.902344 320.261719 519.136719 C 320.21875 519.375 320.226562 519.613281 320.277344 519.847656 C 320.328125 520.082031 320.421875 520.300781 320.5625 520.5 C 320.699219 520.695312 320.871094 520.859375 321.074219 520.992188 C 329.941406 526.664062 330.335938 535.917969 330.746094 545.710938 C 331.175781 556 331.625 566.640625 342.097656 573.339844 C 352.566406 580.039062 362.40625 575.984375 371.933594 572.0625 C 381 568.332031 389.535156 564.796875 398.4375 570.488281 C 407.335938 576.183594 407.695312 585.414062 408.109375 595.207031 C 408.539062 605.5 408.988281 616.140625 419.453125 622.832031 C 429.914062 629.527344 439.769531 625.480469 449.296875 621.5625 C 458.355469 617.828125 466.898438 614.296875 475.792969 619.984375 C 484.6875 625.675781 485.058594 634.914062 485.464844 644.703125 C 485.898438 654.996094 486.351562 665.640625 496.816406 672.332031 C 507.28125 679.027344 517.132812 674.980469 526.660156 671.0625 C 535.71875 667.328125 544.261719 663.796875 553.15625 669.484375 C 562.050781 675.175781 562.421875 684.414062 562.828125 694.203125 C 563.269531 704.5 563.714844 715.136719 574.1875 721.839844 C 584.660156 728.539062 594.496094 724.480469 604.023438 720.5625 C 613.089844 716.832031 621.628906 713.292969 630.527344 718.988281 C 630.730469 719.121094 630.953125 719.207031 631.1875 719.25 C 631.425781 719.289062 631.664062 719.285156 631.898438 719.234375 C 632.132812 719.183594 632.351562 719.085938 632.546875 718.949219 C 632.746094 718.8125 632.910156 718.640625 633.039062 718.4375 C 633.171875 718.234375 633.257812 718.011719 633.300781 717.773438 C 633.34375 717.539062 633.335938 717.300781 633.285156 717.066406 C 633.234375 716.828125 633.140625 716.613281 633 716.414062 C 632.863281 716.21875 632.691406 716.054688 632.488281 715.921875 Z M 632.488281 715.921875 " fill-opacity="1" fill-rule="nonzero"/></g></g></g><g clip-path="url(#f19c853cb4)"><g clip-path="url(#c8fb55ca00)"><g clip-path="url(#5c5cc3c65e)"><path fill="#ff3131" d="M 839.089844 64.863281 C 839.214844 64.667969 839.375 64.507812 839.566406 64.375 C 839.757812 64.246094 839.964844 64.15625 840.191406 64.109375 C 840.417969 64.0625 840.644531 64.058594 840.871094 64.101562 C 841.097656 64.144531 841.308594 64.230469 841.5 64.355469 C 851.464844 70.859375 851.816406 81.050781 852.144531 90.902344 C 852.457031 100.277344 852.75 109.132812 861.207031 114.652344 C 869.660156 120.167969 877.878906 116.867188 886.589844 113.382812 C 895.742188 109.714844 905.203125 105.925781 915.175781 112.433594 C 925.148438 118.941406 925.484375 129.121094 925.8125 138.976562 C 926.132812 148.355469 926.40625 157.199219 934.875 162.722656 C 943.34375 168.25 951.554688 164.945312 960.265625 161.460938 C 969.417969 157.792969 978.882812 154.003906 988.851562 160.511719 C 998.824219 167.019531 999.167969 177.203125 999.496094 187.058594 C 999.808594 196.433594 1000.085938 205.28125 1008.558594 210.808594 C 1017.027344 216.332031 1025.234375 213.027344 1033.941406 209.539062 C 1043.089844 205.867188 1052.550781 202.078125 1062.527344 208.589844 C 1072.507812 215.101562 1072.84375 225.28125 1073.171875 235.136719 C 1073.488281 244.515625 1073.765625 253.359375 1082.238281 258.890625 C 1090.714844 264.421875 1098.910156 261.105469 1107.625 257.621094 C 1116.769531 253.949219 1126.234375 250.160156 1136.203125 256.667969 C 1136.398438 256.792969 1136.558594 256.953125 1136.691406 257.144531 C 1136.820312 257.332031 1136.910156 257.542969 1136.957031 257.769531 C 1137.003906 257.996094 1137.007812 258.222656 1136.964844 258.449219 C 1136.921875 258.675781 1136.835938 258.886719 1136.710938 259.078125 C 1136.585938 259.273438 1136.425781 259.433594 1136.234375 259.5625 C 1136.046875 259.695312 1135.835938 259.785156 1135.609375 259.832031 C 1135.386719 259.878906 1135.160156 259.882812 1134.929688 259.839844 C 1134.703125 259.796875 1134.492188 259.710938 1134.300781 259.585938 C 1125.847656 254.066406 1117.621094 257.363281 1108.910156 260.851562 C 1099.753906 264.515625 1090.292969 268.304688 1080.328125 261.800781 C 1070.363281 255.300781 1070.015625 245.109375 1069.679688 235.25 C 1069.367188 225.875 1069.070312 217.019531 1060.625 211.507812 C 1052.175781 205.996094 1043.945312 209.285156 1035.238281 212.777344 C 1026.078125 216.4375 1016.617188 220.226562 1006.644531 213.71875 C 996.675781 207.210938 996.332031 197.027344 996.003906 187.171875 C 995.691406 177.796875 995.394531 168.941406 986.949219 163.429688 C 978.5 157.917969 970.269531 161.207031 961.5625 164.699219 C 952.402344 168.359375 942.941406 172.148438 932.96875 165.640625 C 923 159.132812 922.664062 148.953125 922.332031 139.097656 C 922.015625 129.71875 921.71875 120.863281 913.273438 115.351562 C 904.824219 109.839844 896.59375 113.128906 887.882812 116.617188 C 878.726562 120.28125 869.265625 124.070312 859.300781 117.566406 C 849.335938 111.066406 848.988281 100.875 848.65625 91.019531 C 848.347656 81.644531 848.042969 72.785156 839.597656 67.273438 C 839.402344 67.148438 839.242188 66.988281 839.113281 66.796875 C 838.980469 66.605469 838.890625 66.398438 838.84375 66.171875 C 838.796875 65.945312 838.792969 65.71875 838.835938 65.492188 C 838.878906 65.265625 838.964844 65.054688 839.089844 64.863281 Z M 1107.648438 300.429688 C 1097.675781 293.921875 1088.214844 297.707031 1079.0625 301.375 C 1070.328125 304.890625 1062.125 308.15625 1053.675781 302.644531 C 1045.230469 297.132812 1044.925781 288.273438 1044.609375 278.894531 C 1044.261719 269.066406 1043.9375 258.851562 1033.972656 252.351562 C 1024.007812 245.847656 1014.511719 249.65625 1005.359375 253.320312 C 996.652344 256.8125 988.445312 260.117188 979.972656 254.589844 C 971.503906 249.066406 971.222656 240.21875 970.914062 230.84375 C 970.585938 220.988281 970.261719 210.773438 960.296875 204.273438 C 950.332031 197.769531 940.871094 201.558594 931.71875 205.222656 C 923.003906 208.710938 914.800781 212.019531 906.324219 206.488281 C 897.847656 200.957031 897.582031 192.121094 897.265625 182.742188 C 896.910156 172.910156 896.585938 162.695312 886.621094 156.195312 C 876.65625 149.691406 867.167969 153.503906 858.015625 157.171875 C 849.300781 160.65625 841.097656 163.921875 832.648438 158.410156 C 824.203125 152.898438 823.878906 144.066406 823.570312 134.691406 C 823.238281 124.839844 822.910156 114.617188 812.945312 108.117188 C 812.75 107.988281 812.542969 107.90625 812.3125 107.863281 C 812.085938 107.820312 811.859375 107.824219 811.632812 107.871094 C 811.410156 107.917969 811.199219 108.007812 811.007812 108.136719 C 810.820312 108.265625 810.660156 108.429688 810.535156 108.621094 C 810.40625 108.816406 810.324219 109.027344 810.28125 109.253906 C 810.238281 109.480469 810.242188 109.707031 810.289062 109.933594 C 810.335938 110.160156 810.425781 110.367188 810.554688 110.558594 C 810.6875 110.75 810.847656 110.90625 811.042969 111.035156 C 819.488281 116.546875 819.792969 125.40625 820.105469 134.773438 C 820.417969 144.65625 820.773438 154.820312 830.746094 161.328125 C 840.71875 167.835938 850.175781 164.035156 859.328125 160.367188 C 868.019531 156.917969 876.261719 153.59375 884.71875 159.109375 C 893.171875 164.628906 893.460938 173.480469 893.78125 182.851562 C 894.113281 192.707031 894.449219 202.898438 904.414062 209.402344 C 914.378906 215.902344 923.851562 212.113281 933.003906 208.445312 C 941.6875 204.992188 949.9375 201.671875 958.394531 207.1875 C 966.847656 212.707031 967.144531 221.5625 967.457031 230.929688 C 967.789062 240.785156 968.132812 250.980469 978.097656 257.484375 C 988.0625 263.988281 997.535156 260.195312 1006.6875 256.527344 C 1015.363281 253.070312 1023.613281 249.75 1032.070312 255.265625 C 1040.523438 260.785156 1040.820312 269.640625 1041.132812 279.007812 C 1041.472656 288.867188 1041.808594 299.058594 1051.78125 305.566406 C 1061.753906 312.074219 1071.210938 308.273438 1080.363281 304.605469 C 1089.046875 301.152344 1097.289062 297.828125 1105.746094 303.34375 C 1105.9375 303.472656 1106.148438 303.554688 1106.375 303.597656 C 1106.601562 303.640625 1106.828125 303.636719 1107.054688 303.589844 C 1107.28125 303.542969 1107.488281 303.453125 1107.679688 303.324219 C 1107.871094 303.195312 1108.027344 303.03125 1108.15625 302.839844 C 1108.28125 302.644531 1108.367188 302.433594 1108.410156 302.207031 C 1108.449219 301.980469 1108.449219 301.753906 1108.402344 301.527344 C 1108.355469 301.300781 1108.265625 301.09375 1108.132812 300.902344 C 1108.003906 300.710938 1107.839844 300.554688 1107.648438 300.429688 Z M 1079.09375 344.1875 C 1069.121094 337.679688 1059.652344 341.476562 1050.503906 345.136719 C 1041.792969 348.621094 1033.589844 351.929688 1025.121094 346.40625 C 1016.652344 340.878906 1016.371094 332.03125 1016.054688 322.652344 C 1015.71875 312.804688 1015.382812 302.613281 1005.410156 296.105469 C 995.4375 289.597656 985.972656 293.394531 976.824219 297.054688 C 968.117188 300.542969 959.90625 303.847656 951.4375 298.320312 C 942.96875 292.796875 942.6875 283.949219 942.378906 274.574219 C 942.042969 264.726562 941.703125 254.535156 931.734375 248.027344 C 921.761719 241.519531 912.300781 245.320312 903.152344 248.980469 C 894.441406 252.464844 886.238281 255.777344 877.761719 250.242188 C 869.285156 244.710938 869.019531 235.875 868.703125 226.496094 C 868.367188 216.648438 868.027344 206.457031 858.066406 199.953125 C 848.101562 193.453125 838.625 197.242188 829.476562 200.902344 C 820.765625 204.386719 812.5625 207.699219 804.09375 202.171875 C 795.625 196.644531 795.34375 187.796875 795.03125 178.425781 C 794.699219 168.578125 794.351562 158.378906 784.390625 151.875 C 784.195312 151.75 783.984375 151.664062 783.757812 151.621094 C 783.53125 151.578125 783.304688 151.582031 783.078125 151.628906 C 782.851562 151.675781 782.644531 151.765625 782.453125 151.898438 C 782.261719 152.027344 782.105469 152.1875 781.976562 152.382812 C 781.851562 152.574219 781.765625 152.785156 781.726562 153.011719 C 781.683594 153.238281 781.683594 153.464844 781.730469 153.691406 C 781.78125 153.917969 781.867188 154.128906 782 154.316406 C 782.128906 154.507812 782.292969 154.667969 782.484375 154.792969 C 790.933594 160.304688 791.234375 169.164062 791.546875 178.539062 C 791.875 188.394531 792.21875 198.582031 802.1875 205.089844 C 812.160156 211.59375 821.617188 207.800781 830.769531 204.136719 C 839.480469 200.648438 847.683594 197.339844 856.160156 202.871094 C 864.636719 208.402344 864.902344 217.238281 865.222656 226.617188 C 865.550781 236.472656 865.894531 246.660156 875.859375 253.160156 C 885.824219 259.664062 895.292969 255.878906 904.445312 252.214844 C 913.152344 248.722656 921.359375 245.417969 929.828125 250.945312 C 938.296875 256.472656 938.578125 265.316406 938.890625 274.691406 C 939.21875 284.546875 939.570312 294.738281 949.535156 301.238281 C 959.5 307.742188 968.96875 303.957031 978.121094 300.292969 C 986.828125 296.800781 995.035156 293.496094 1003.503906 299.023438 C 1011.972656 304.550781 1012.253906 313.394531 1012.566406 322.769531 C 1012.902344 332.628906 1013.246094 342.816406 1023.21875 349.320312 C 1033.1875 355.828125 1042.644531 352.035156 1051.796875 348.371094 C 1060.507812 344.882812 1068.710938 341.574219 1077.1875 347.105469 C 1077.382812 347.230469 1077.59375 347.316406 1077.820312 347.359375 C 1078.046875 347.402344 1078.273438 347.398438 1078.5 347.351562 C 1078.726562 347.304688 1078.933594 347.214844 1079.125 347.085938 C 1079.316406 346.953125 1079.472656 346.792969 1079.597656 346.597656 C 1079.726562 346.40625 1079.808594 346.195312 1079.851562 345.96875 C 1079.894531 345.742188 1079.890625 345.515625 1079.84375 345.289062 C 1079.796875 345.0625 1079.707031 344.855469 1079.578125 344.664062 C 1079.449219 344.472656 1079.285156 344.3125 1079.09375 344.1875 Z M 1079.09375 344.1875 " fill-opacity="1" fill-rule="nonzero"/></g></g></g></svg>